<svg xmlns:inkscape="http://www.inkscape.org/namespaces/inkscape" xmlns:sodipodi="http://sodipodi.sourceforge.net/DTD/sodipodi-0.dtd" xmlns="http://www.w3.org/2000/svg" xmlns:svg="http://www.w3.org/2000/svg" version="1.1" id="svg1" xml:space="preserve" inkscape:version="1.4.3 (0d15f75, 2025-12-25)" sodipodi:docname="logo.svg" viewBox="40.9 62.06 129.12 163.01"><sodipodi:namedview id="namedview1" pagecolor="#ffffff" bordercolor="#000000" borderopacity="0.25" inkscape:showpageshadow="2" inkscape:pageopacity="0.0" inkscape:pagecheckerboard="0" inkscape:deskcolor="#d1d1d1" inkscape:document-units="mm" inkscape:zoom="0.43055996" inkscape:cx="595.73584" inkscape:cy="616.63885" inkscape:window-width="1229" inkscape:window-height="750" inkscape:window-x="0" inkscape:window-y="33" inkscape:window-maximized="0" inkscape:current-layer="layer1"/><defs id="defs1"/><g inkscape:label="Layer 1" inkscape:groupmode="layer" id="layer1"><path style="fill:#000000" d="m 103.6409,224.84985 c -0.55139,-0.2803 -11.324935,-11.61631 -17.828515,-18.75931 -24.660322,-27.08486 -38.455483,-48.31063 -42.967923,-66.1121 -1.232141,-4.86077 -1.762513,-8.86215 -1.914274,-14.44222 -0.170638,-6.27414 0.26857,-10.51359 1.644655,-15.875 1.178959,-4.59339 2.146445,-7.16759 4.47484,-11.906248 8.172188,-16.631738 23.065941,-28.728596 41.204882,-33.467024 15.488475,-4.046046 31.861255,-2.527799 45.468585,4.216299 6.36818,3.156211 14.55208,8.578531 14.55208,9.641612 0,0.215672 -0.4316,0.428206 -1.0802,0.531921 -0.59411,0.095 -1.67862,0.475973 -2.41002,0.846603 l -1.32982,0.673872 -2.21137,-0.949995 c -7.05919,-3.032594 -14.24612,-4.381759 -23.31909,-4.377575 -10.88861,0.005 -19.806865,1.996688 -29.180745,6.516778 -8.92121,4.301807 -15.757264,10.051299 -20.876366,17.558129 -9.915308,14.540178 -11.529535,32.878908 -4.373442,49.685338 3.237728,7.60397 7.655262,13.70685 15.846145,21.89168 5.865223,5.86089 7.701783,7.4659 17.341163,15.15486 4.006585,3.1959 7.437645,5.62679 8.140195,5.7673 1.36063,0.27213 2.01353,-0.0474 5.01362,-2.45407 17.70205,-14.20026 31.13762,-28.88735 39.41053,-43.08157 4.59332,-7.88098 7.06355,-13.48157 9.19168,-20.8397 1.48602,-5.13799 2.17227,-11.52437 1.75488,-16.33128 -0.5129,-5.90695 -1.54284,-9.619208 -4.17597,-15.051768 l -1.71553,-3.53942 0.59944,-1.884537 c 0.3297,-1.036495 0.63707,-2.033364 0.68304,-2.215265 0.16983,-0.67196 0.63888,-0.280699 2.13731,1.78286 4.64337,6.394602 8.28617,14.11222 10.38821,22.00842 2.52931,9.5012 2.53969,20.40563 0.0289,30.38975 -2.85152,11.33919 -10.22326,25.10467 -21.49495,40.13817 -8.22205,10.96609 -22.55891,27.43595 -35.11671,40.3413 l -4.15545,4.27046 -1.5743,0.0836 c -0.86587,0.046 -1.83585,-0.0494 -2.15552,-0.21187 z m 3.17705,-0.47275 c 1.34499,-0.51137 21.35909,-22.27954 29.75047,-32.35785 17.40474,-20.90366 27.53099,-37.92099 31.00162,-52.09876 1.44868,-5.91794 1.72076,-8.25382 1.72171,-14.78115 8.4e-4,-5.79205 -0.15303,-7.52768 -1.07899,-12.17083 -0.86937,-4.35939 -3.19311,-11.12946 -5.24798,-15.289668 -1.35556,-2.74442 -4.25794,-7.56539 -5.74385,-9.540781 l -1.06425,-1.414828 -0.58734,1.745309 -0.58735,1.74531 1.51558,3.06192 c 6.82865,13.795868 5.80765,28.576608 -3.2116,46.493368 -3.14097,6.23955 -5.87382,10.66004 -10.25698,16.59103 -7.19881,9.74095 -18.77148,21.67168 -29.52512,30.43865 -1.15243,0.93953 -2.80083,2.2824 -3.66313,2.98416 -2.33966,1.90409 -3.09251,2.29385 -4.4329,2.29495 -1.29774,0.001 -1.82607,-0.3024 -5.738705,-3.29635 -16.04712,-12.27928 -25.598823,-21.51962 -31.736122,-30.70161 -6.287711,-9.40703 -9.480016,-20.00461 -9.41215,-31.24579 0.02816,-4.66503 0.323474,-7.10726 1.378515,-11.4004 1.329707,-5.41081 2.527494,-8.56153 4.789225,-12.59779 5.634087,-10.054538 13.992915,-17.619328 24.981422,-22.608339 6.51026,-2.955796 11.981245,-4.48933 19.579165,-5.488113 3.80535,-0.500229 12.30055,-0.575257 16.27188,-0.14371 5.35468,0.58187 11.28335,2.050437 15.37853,3.809352 2.33985,1.004985 2.87126,1.121054 3.28782,0.718114 0.13825,-0.133725 0.95306,-0.468922 1.81071,-0.744883 l 1.55935,-0.501747 -1.82393,-1.324983 c -4.45769,-3.238244 -7.58073,-5.158424 -11.87811,-7.30317 -6.68799,-3.337858 -14.19036,-5.458305 -22.31043,-6.305747 C 107.80696,62.552647 99.361505,62.760986 95.808995,63.330952 79.276731,65.983398 65.758642,73.479786 55.680264,85.584139 42.157217,101.82561 38.115517,121.83862 44.192043,142.46955 c 4.595228,15.60166 17.032209,34.96662 36.763232,57.2421 1.59165,1.79691 3.53361,3.99956 4.31546,4.89479 2.04151,2.33755 11.00478,11.93064 14.57574,15.59992 1.672335,1.71838 3.105575,3.22945 3.184995,3.35795 0.52201,0.84463 2.55496,1.28101 3.78648,0.81279 z m 6.83191,-53.66328 c -0.43868,-0.36747 -0.80175,-1.63689 -1.75945,-6.15156 -0.66368,-3.1287 -1.62337,-7.65307 -2.13264,-10.05417 -0.50927,-2.40109 -1.15166,-5.49672 -1.42753,-6.87916 -0.27588,-1.38245 -0.87472,-4.23995 -1.33077,-6.35 -0.45604,-2.11006 -1.07232,-5.08662 -1.3695,-6.61459 -0.29719,-1.52797 -0.57937,-2.8204 -0.62707,-2.87207 -0.0477,-0.0517 -1.43352,-0.25185 -3.07959,-0.44485 -1.64608,-0.193 -6.505215,-0.7669 -10.798075,-1.27532 -4.29287,-0.50842 -10.8413,-1.23835 -14.552086,-1.62207 -8.389088,-0.86748 -8.3629,-0.86347 -8.855036,-1.3556 -0.550232,-0.55024 -0.516455,-2.04042 0.05764,-2.54301 0.254661,-0.22294 3.618177,-1.98187 7.474478,-3.90872 3.856302,-1.92686 9.392713,-4.72449 12.303123,-6.21696 2.91042,-1.49248 9.45886,-4.82851 14.552076,-7.41341 5.09323,-2.5849 10.21292,-5.20436 11.37709,-5.82103 1.16416,-0.61666 5.86243,-3.055628 10.44058,-5.419938 10.28469,-5.31134 22.3454,-11.659387 23.56928,-12.405486 1.14227,-0.69635 2.66187,-0.731829 3.25538,-0.07601 0.72526,0.801409 0.51318,1.900575 -1.16282,6.026567 -1.98814,4.894397 -7.72151,19.100457 -13.81694,34.235407 -2.54941,6.33016 -6.27281,15.5575 -8.27425,20.50521 -7.57895,18.7358 -9.83791,24.37191 -10.1557,25.33845 -0.52639,1.601 -2.50602,2.3086 -3.68819,1.31832 z m 2.30596,-0.52917 c 0.32353,-0.27358 1.89199,-3.81869 3.83371,-8.6651 1.8074,-4.51115 4.89613,-12.19068 6.86385,-17.06562 1.96771,-4.87495 5.78197,-14.34042 8.47613,-21.03438 2.69415,-6.69396 5.5135,-13.65911 6.26521,-15.47812 0.75172,-1.81901 1.70564,-4.20026 2.11984,-5.29167 0.4142,-1.09141 1.66423,-4.187028 2.77785,-6.879168 4.64176,-11.22126 4.85169,-11.971957 3.44641,-12.324659 -0.66318,-0.166447 -0.88285,-0.07885 -3.84484,1.533253 -8.45335,4.600846 -51.634605,26.808294 -73.951039,38.031864 -3.7766,1.89936 -3.96875,2.03405 -3.96875,2.78194 0,0.95006 0.816552,1.45333 2.367426,1.45912 1.138225,0.004 8.17806,0.76015 22.371118,2.40209 5.02047,0.5808 9.813245,1.12926 10.650615,1.2188 0.83738,0.0895 1.69679,0.29461 1.90982,0.45572 0.2251,0.17024 0.66191,1.67802 1.04299,3.60021 0.36062,1.81901 1.01065,4.97416 1.4445,7.01145 0.43385,2.0373 1.10056,5.25198 1.48159,7.14375 0.38102,1.89177 1.46119,6.98045 2.40038,11.30817 0.93918,4.32773 1.70761,8.04283 1.70761,8.25578 0,0.66879 0.58483,1.70558 1.02905,1.82431 0.80535,0.21525 1.03027,0.1742 1.57653,-0.28774 z" id="path1"/><path style="fill:#3b73e0;fill-opacity:1;stroke:none;stroke-width:0.264583;stroke-opacity:1" d="M 150.44889,83.342167 105.14417,131.56789" id="path13"/><path style="fill:#3b73e0;fill-opacity:1;stroke:none;stroke-width:0.172461;stroke-opacity:1" d="m 114.55262,170.37703 c -0.66683,-0.2686 -0.95469,-0.99101 -1.53189,-3.84449 -0.31081,-1.53648 -1.22708,-5.8979 -2.03617,-9.69204 -0.80909,-3.79414 -2.21588,-10.50718 -3.12621,-14.91787 -0.91033,-4.41069 -1.77319,-8.48509 -1.91748,-9.05421 -0.40217,-1.58638 -0.5594,-1.74811 -1.91142,-1.96629 -2.45927,-0.39684 -29.384989,-3.39935 -33.445587,-3.72955 -1.714161,-0.13939 -2.476426,-0.52606 -2.476426,-1.25623 0,-0.29035 0.164071,-0.64399 0.40285,-0.86831 0.221567,-0.20815 4.781005,-2.5966 10.132083,-5.30765 19.875828,-10.06983 54.00996,-27.625394 63.27838,-32.544765 7.55059,-4.007609 7.14047,-3.816543 7.79303,-3.630515 1.18973,0.339162 0.92525,1.288778 -3.14041,11.275663 -2.32111,5.701597 -7.06362,17.445377 -17.41114,43.114867 -2.00731,4.97959 -3.75234,9.28681 -3.87786,9.57158 -0.19046,0.43212 -3.23156,8.06394 -3.73577,9.37514 -0.12465,0.32415 -0.004,0.006 -0.12485,0.3212 -0.089,0.23153 -0.6724,1.43498 -0.75758,1.70337 -0.0592,0.18664 0.53367,-1.24913 0.44722,-1.00931 -0.15437,0.42823 -0.5164,1.36158 -1.4559,3.66928 -1.02125,2.50852 -1.25932,3.09084 -1.36308,3.33864 -0.12818,0.30608 -0.12371,0.24553 -0.2912,0.68974 -0.13904,0.36875 -0.22739,0.48819 -0.48164,1.0555 l -0.27125,0.67733 -0.01,0.0346 c -0.0238,0.0849 0.003,0.009 -0.0526,0.13527 -0.0934,0.21072 -0.0251,0.0546 -0.10637,0.23511 -0.12988,0.2883 0.0248,-0.0416 -0.10415,0.29454 -0.0548,0.14277 -0.21458,0.41123 -0.254,0.50294 -0.0875,0.20354 -0.054,0.13558 -0.13888,0.31569 -0.20688,0.43917 -0.64655,1.2964 -1.03951,1.5067 -0.38849,0.20792 -0.4854,0.20832 -0.99237,0.004 z" id="path14" sodipodi:nodetypes="csssssssssssssssssssssscssssssscc"/><path style="fill:#3b73e0;fill-opacity:1;stroke:none;stroke-width:0.431813;stroke-opacity:1" d="M 100.88672,220.89881 C 62.961326,181.18684 47.161148,157.88729 42.686647,135.07474 c -1.048454,-5.34539 -1.052031,-16.69349 -0.0069,-21.89722 2.514602,-12.52028 8.889766,-23.841972 18.602006,-33.035414 8.973262,-8.493943 19.870264,-13.839393 33.302011,-16.336076 6.036321,-1.122024 19.602331,-0.694716 25.493821,0.803016 5.80191,1.474965 10.73993,3.314615 15.04633,5.605494 3.60457,1.917522 10.89981,6.601785 11.30657,7.259926 0.12194,0.197307 -0.46818,0.647001 -1.31139,0.999315 -1.46089,0.610396 -1.726,0.570743 -5.62833,-0.841841 -8.24416,-2.984267 -17.61465,-4.096977 -27.51649,-3.26748 -9.36069,0.784165 -15.348157,2.387436 -23.545354,6.30478 -6.322015,3.021217 -10.678316,6.047349 -15.225289,10.576349 -9.776499,9.737851 -14.715185,21.833351 -14.703361,36.010481 0.01894,22.71368 10.741858,38.73493 41.601284,62.15706 4.16773,3.16328 5.53031,3.52156 7.86845,2.06893 5.64783,-3.50886 23.85001,-20.80452 30.64949,-29.12305 16.0367,-19.61941 23.96215,-39.12444 22.24354,-54.74282 -0.57152,-5.19385 -1.60698,-8.818832 -3.94418,-13.808001 -1.64291,-3.507078 -1.70203,-3.773839 -1.14095,-5.148887 l 0.59174,-1.450178 2.19214,3.421629 c 4.94012,7.710842 8.51528,16.810767 9.88619,25.163557 1.06602,6.49508 0.6878,16.76796 -0.84113,22.84592 -3.27957,13.03738 -9.81875,25.28101 -22.57401,42.26645 -7.17084,9.54899 -21.93191,26.48788 -33.34404,38.26355 -6.25111,6.45024 -6.2873,6.45603 -10.80207,1.72858 z" id="path15"/></g></svg>